<?xml version="1.0" encoding="utf-8"?>
<!-- Generator: Adobe Illustrator 24.0.1, SVG Export Plug-In . SVG Version: 6.00 Build 0)  -->
<svg version="1.1" id="Layer_1" xmlns="http://www.w3.org/2000/svg" xmlns:xlink="http://www.w3.org/1999/xlink" x="0px" y="0px"
	 viewBox="0 0 64 64" style="enable-background:new 0 0 64 64;" xml:space="preserve">
<style type="text/css">
	.st0{fill:#231F20;}
</style>
<g transform="translate(0 0)">
	<g transform="translate(0 0)">
		<path class="st0" d="M39.5,28.3h3.5v6.1h-3.5V28.3z"/>
		<path class="st0" d="M37,51l-5,5l-5-5l2.4-2.4l2.5,2.5l2.5-2.5L37,51z"/>
		<path class="st0" d="M27.1,20.3c0.9,2,2.8,3.3,5,3.3c2.1-0.1,4-1.4,4.9-3.3c1.2,0,2.3-0.3,3.3-0.9c0.9-0.6,1.6-1.4,2-2.3h5.3
			c0-2-0.7-4-2.1-5.5c-1.3-1.5-3.2-2.4-5.2-2.5l-0.9-0.1l-0.5-0.8c-1.4-2.4-4-3.9-6.8-3.9h-0.1c-2.8,0-5.3,1.5-6.7,3.9l-0.5,0.8
			L23.8,9c-2,0.2-3.8,1.1-5.2,2.5c-1.1,1.2-1.8,2.7-2,4.3c0,0.2-0.1,0.4-0.1,0.6c0,0.2,0,0.4,0,0.6h5.3c0.5,1,1.3,1.8,2.2,2.4
			C24.9,20,26,20.3,27.1,20.3L27.1,20.3z M63.4,30.7v1.8H51.2V42l-5.6,4.6v3.1c0,7.5-6.1,13.6-13.6,13.6s-13.6-6.1-13.6-13.6l0,0
			v-3.1L12.8,42v-9.5H0.6v-1.8c0-7,5.3-12.8,12.2-13.5c0-3,1.1-5.9,3.1-8.1c1.8-1.9,4.1-3.2,6.7-3.6c3.8-5.2,11-6.4,16.3-2.7
			c1,0.7,1.9,1.6,2.7,2.7c2.6,0.4,4.9,1.7,6.7,3.6c2,2.2,3.1,5.1,3.1,8.1C58.1,17.9,63.4,23.7,63.4,30.7z M51.2,28.9h8.3
			c-0.8-4.2-4.1-7.4-8.3-8V28.9z M47.5,40.3V20.8h-3.4c-1.3,1.6-3.1,2.6-5.1,3c-2.9,3.9-8.5,4.7-12.4,1.7c-0.7-0.5-1.2-1.1-1.7-1.7
			c-2-0.4-3.8-1.4-5.1-3h-3.4v19.5l5.6,4.6v4.9c0,5.5,4.4,9.9,9.9,9.9s9.9-4.4,9.9-9.9v-4.9L47.5,40.3z M12.8,28.9v-8
			c-4.2,0.6-7.5,3.8-8.3,8L12.8,28.9z"/>
		<path class="st0" d="M21.1,28.3h3.5v6.1h-3.5V28.3z"/>
		<path class="st0" d="M22.5,18.2c0.1,0.2,0.3,0.4,0.5,0.5C22.7,18.5,22.6,18.4,22.5,18.2z"/>
	</g>
</g>
</svg>
