<svg xmlns="http://www.w3.org/2000/svg" width="50" height="50" viewBox="0 0 50 50"><defs><style>.a{fill:#f2ffff;}</style></defs><g transform="translate(0 0)"><g transform="translate(0 0)"><path class="a" d="M315.67,224h2.753v4.893H315.67Z" transform="translate(-284.727 -201.971)"/><path class="a" d="M220.9,385.626l-3.944,3.944-3.944-3.944,1.947-1.946,2,2,2-2Z" transform="translate(-191.954 -345.453)"/><path class="a" d="M21.085,15.7a4.434,4.434,0,0,0,3.962,2.638A4.492,4.492,0,0,0,28.915,15.7a5.45,5.45,0,0,0,2.642-.713,5.14,5.14,0,0,0,1.626-1.849h4.187a6.606,6.606,0,0,0-1.683-4.418A6.328,6.328,0,0,0,31.565,6.7l-.744-.062L30.436,6A6.307,6.307,0,0,0,25,2.93h-.1A6.306,6.306,0,0,0,19.564,6l-.386.639-.744.062a6.328,6.328,0,0,0-4.121,2.019A6.518,6.518,0,0,0,12.7,12.158c-.024.162-.043.325-.055.488s-.019.326-.019.488h4.187a5.449,5.449,0,0,0,1.743,1.923,5.293,5.293,0,0,0,2.525.639ZM50,23.958v1.465H40.313v7.559L35.84,36.675V39.16a10.84,10.84,0,0,1-21.68,0V36.675L9.687,32.982v-7.56H0V23.958a10.855,10.855,0,0,1,9.7-10.78,9.632,9.632,0,0,1,2.46-6.449,9.251,9.251,0,0,1,5.3-2.859,9.281,9.281,0,0,1,15.08,0,9.256,9.256,0,0,1,5.3,2.859A9.636,9.636,0,0,1,40.3,13.178,10.855,10.855,0,0,1,50,23.958Zm-9.687-1.465h6.621a7.929,7.929,0,0,0-6.621-6.359ZM37.384,31.6V16.064H34.7a6.99,6.99,0,0,1-4.075,2.391,7.053,7.053,0,0,1-11.256,0A6.99,6.99,0,0,1,15.3,16.064H12.616V31.6l4.474,3.693V39.16a7.91,7.91,0,1,0,15.82,0V35.295Zm-27.7-9.108V16.134a7.929,7.929,0,0,0-6.621,6.359Z" transform="translate(0 0)"/><path class="a" d="M166.33,224h2.753v4.893H166.33Z" transform="translate(-150.026 -201.971)"/><path class="a" d="M178.06,143.23a4.14,4.14,0,0,0,.359.418A3.916,3.916,0,0,1,178.06,143.23Z" transform="translate(-160.663 -129.235)"/></g></g></svg>